<svg width="159" height="31" viewBox="0 0 159 31" fill="none" xmlns="http://www.w3.org/2000/svg">
<g filter="url(#filter0_dd_285_139)">
<path d="M8.44774 15.0864C7.27484 15.7068 6.41414 16.7619 6.06814 18.0426C5.72137 19.322 5.91767 20.7221 6.60071 21.9119C7.28374 23.1018 8.39377 23.9773 9.67343 24.323C10.9539 24.6701 12.2991 24.4589 13.4263 23.759C13.4263 23.759 13.4263 23.759 13.4263 23.759C15.4395 22.5079 17.4209 21.359 19.4819 20.2724C37.8391 9.27503 59.576 12.7238 79.7877 21.4463C80.0213 21.5355 80.2555 21.625 80.4903 21.7147C90.1571 26.2376 100.978 21.2979 108.751 17.5918C119.789 12.3048 132.221 13.6304 143.481 18.2948C145.695 19.1779 147.83 20.1327 150.06 21.22C150.536 21.4527 151.086 21.4864 151.588 21.3139C152.089 21.1413 152.502 20.7766 152.734 20.2999C152.967 19.8232 153.001 19.2737 152.828 18.7721C152.656 18.2705 152.291 17.858 151.814 17.6253C151.814 17.6253 151.814 17.6253 151.814 17.6253C149.504 16.4989 147.282 15.5043 144.961 14.5787C133.361 9.66168 118.977 8.16722 107.191 13.9083C98.6085 17.9252 90.313 21.2459 82.3837 17.1306C82.1541 17.0285 81.9248 16.9266 81.696 16.8248C62.6875 7.08618 36.7045 0.64553 15.3722 11.7179C13.0016 12.7618 10.7349 13.8702 8.44774 15.0864Z" fill="#BBD6DC"/>
</g>
<defs>
<filter id="filter0_dd_285_139" x="0.00039053" y="-9.77516e-05" width="158.837" height="30.3869" filterUnits="userSpaceOnUse" color-interpolation-filters="sRGB">
<feFlood flood-opacity="0" result="BackgroundImageFix"/>
<feColorMatrix in="SourceAlpha" type="matrix" values="0 0 0 0 0 0 0 0 0 0 0 0 0 0 0 0 0 0 127 0" result="hardAlpha"/>
<feOffset/>
<feGaussianBlur stdDeviation="2.95"/>
<feComposite in2="hardAlpha" operator="out"/>
<feColorMatrix type="matrix" values="0 0 0 0 0.733333 0 0 0 0 0.839216 0 0 0 0 0.862745 0 0 0 1 0"/>
<feBlend mode="normal" in2="BackgroundImageFix" result="effect1_dropShadow_285_139"/>
<feColorMatrix in="SourceAlpha" type="matrix" values="0 0 0 0 0 0 0 0 0 0 0 0 0 0 0 0 0 0 127 0" result="hardAlpha"/>
<feOffset/>
<feGaussianBlur stdDeviation="2"/>
<feComposite in2="hardAlpha" operator="out"/>
<feColorMatrix type="matrix" values="0 0 0 0 0.733333 0 0 0 0 0.839216 0 0 0 0 0.862745 0 0 0 1 0"/>
<feBlend mode="normal" in2="effect1_dropShadow_285_139" result="effect2_dropShadow_285_139"/>
<feBlend mode="normal" in="SourceGraphic" in2="effect2_dropShadow_285_139" result="shape"/>
</filter>
</defs>
</svg>
